# xmcd CD database file
#
# Track frame offsets:
#	150
#	17917
#	37062
#	58310
#	77290
#	99417
#	124805
#	147680
#
# Disc length: 2162 seconds
#
# Revision: 0
# Processed by: cddbd v1.5.1PL2 Copyright (c) Steve Scherf et al.
# Submitted via: CDex 1.51
#
DISCID=6e087008
DTITLE=Louie Ramirez  - Mi Fruto
DYEAR=1983
DGENRE=Salsa
TTITLE0=Mi Lindo Son
TTITLE1=El Mapo 
TTITLE2=Mi Fruto 
TTITLE3=Ten Cuidado
TTITLE4=Con Su Permiso
TTITLE5=El Arca De Noe
TTITLE6=El Secreto
TTITLE7=Vida
EXTD=YEAR: 1983
EXTT0=
EXTT1=
EXTT2=
EXTT3=
EXTT4=
EXTT5=
EXTT6=
EXTT7=
PLAYORDER=
